<svg width="751" height="340" viewBox="0 0 751 340" fill="none" xmlns="http://www.w3.org/2000/svg">
<path d="M273 20C273 8.9543 281.954 0 293 0H457C468.046 0 477 8.95431 477 20V184C477 195.046 468.046 204 457 204H293C281.954 204 273 195.046 273 184V20Z" fill="#EAEFF5"/>
<path d="M328 53H404V173H328V53Z" fill="white"/>
<g filter="url(#filter0_d_67_181)">
<path d="M346 35H422V155H346V35Z" fill="#D9D9D9"/>
</g>
<path d="M346 35H422V95H346V35Z" fill="#9DA9AF"/>
<path d="M346 95H422V155H346V95Z" fill="#C9D0D8"/>
<path d="M370.592 94.3333C370.592 98.3834 367.309 101.667 363.259 101.667C359.209 101.667 355.926 98.3834 355.926 94.3333C355.926 90.2832 359.209 87 363.259 87C367.309 87 370.592 90.2832 370.592 94.3333Z" fill="#C9D0D8"/>
<path d="M411.334 94.3333C411.334 98.3834 408.05 101.667 404 101.667C399.95 101.667 396.667 98.3834 396.667 94.3333C396.667 90.2832 399.95 87 404 87C408.05 87 411.334 90.2832 411.334 94.3333Z" fill="#C9D0D8"/>
<path d="M383.333 125.666C389.96 125.666 395.333 120.293 395.333 113.666H371.333C371.333 120.293 376.706 125.666 383.333 125.666Z" fill="white"/>
<path d="M641.354 249.8L640.514 221H648.254L647.474 249.8H641.354ZM644.414 263.3C643.094 263.3 641.994 262.88 641.114 262.04C640.274 261.2 639.854 260.2 639.854 259.04C639.854 257.8 640.274 256.76 641.114 255.92C641.994 255.08 643.094 254.66 644.414 254.66C645.774 254.66 646.854 255.08 647.654 255.92C648.494 256.76 648.914 257.8 648.914 259.04C648.914 260.2 648.494 261.2 647.654 262.04C646.854 262.88 645.774 263.3 644.414 263.3Z" fill="#394452"/>
<path d="M607.943 276.202L615.323 259.642H613.523L601.463 232.762H609.323L618.323 253.282L626.843 232.762H634.463L615.563 276.202H607.943Z" fill="#394452"/>
<path d="M578.935 263.721C576.135 263.721 573.635 263.041 571.435 261.681C569.235 260.321 567.515 258.441 566.275 256.041C565.075 253.641 564.475 250.921 564.475 247.881C564.475 244.841 565.095 242.141 566.335 239.781C567.575 237.381 569.295 235.501 571.495 234.141C573.735 232.741 576.255 232.041 579.055 232.041C581.335 232.041 583.315 232.481 584.995 233.361C586.715 234.201 588.075 235.401 589.075 236.961V219.801H596.275V263.001H589.795L589.075 258.621C588.435 259.501 587.655 260.341 586.735 261.141C585.815 261.901 584.715 262.521 583.435 263.001C582.155 263.481 580.655 263.721 578.935 263.721ZM580.435 257.481C582.155 257.481 583.675 257.081 584.995 256.281C586.315 255.441 587.335 254.301 588.055 252.861C588.775 251.421 589.135 249.761 589.135 247.881C589.135 246.001 588.775 244.341 588.055 242.901C587.335 241.461 586.315 240.341 584.995 239.541C583.675 238.741 582.155 238.341 580.435 238.341C578.795 238.341 577.315 238.741 575.995 239.541C574.675 240.341 573.635 241.461 572.875 242.901C572.155 244.341 571.795 246.001 571.795 247.881C571.795 249.761 572.155 251.421 572.875 252.861C573.635 254.301 574.675 255.441 575.995 256.281C577.315 257.081 578.795 257.481 580.435 257.481Z" fill="#394452"/>
<path d="M529.283 263.001V232.761H535.643L536.183 237.801C537.103 236.041 538.423 234.641 540.143 233.601C541.863 232.561 543.903 232.041 546.263 232.041C548.703 232.041 550.783 232.561 552.503 233.601C554.223 234.601 555.543 236.081 556.463 238.041C557.423 240.001 557.903 242.441 557.903 245.361V263.001H550.703V246.021C550.703 243.501 550.143 241.561 549.023 240.201C547.903 238.841 546.243 238.161 544.043 238.161C542.603 238.161 541.303 238.501 540.143 239.181C539.023 239.861 538.123 240.861 537.443 242.181C536.803 243.461 536.483 245.021 536.483 246.861V263.001H529.283Z" fill="#394452"/>
<path d="M504.91 263.721C502.43 263.721 500.37 263.301 498.73 262.461C497.09 261.621 495.87 260.501 495.07 259.101C494.27 257.701 493.87 256.181 493.87 254.541C493.87 252.621 494.35 250.961 495.31 249.561C496.31 248.161 497.77 247.081 499.69 246.321C501.61 245.521 503.97 245.121 506.77 245.121H514.39C514.39 243.521 514.17 242.201 513.73 241.161C513.29 240.081 512.61 239.281 511.69 238.761C510.77 238.241 509.59 237.981 508.15 237.981C506.51 237.981 505.11 238.361 503.95 239.121C502.79 239.841 502.07 240.961 501.79 242.481H494.71C494.95 240.321 495.67 238.481 496.87 236.961C498.07 235.401 499.65 234.201 501.61 233.361C503.61 232.481 505.79 232.041 508.15 232.041C510.99 232.041 513.41 232.541 515.41 233.541C517.41 234.501 518.93 235.901 519.97 237.741C521.05 239.541 521.59 241.721 521.59 244.281V263.001H515.47L514.75 258.141C514.35 258.941 513.83 259.681 513.19 260.361C512.59 261.041 511.89 261.641 511.09 262.161C510.29 262.641 509.37 263.021 508.33 263.301C507.33 263.581 506.19 263.721 504.91 263.721ZM506.53 258.021C507.69 258.021 508.71 257.821 509.59 257.421C510.51 256.981 511.29 256.381 511.93 255.621C512.61 254.821 513.13 253.941 513.49 252.981C513.85 252.021 514.09 251.001 514.21 249.921V249.801H507.55C506.15 249.801 504.99 249.981 504.07 250.341C503.15 250.661 502.49 251.141 502.09 251.781C501.69 252.421 501.49 253.161 501.49 254.001C501.49 254.841 501.69 255.561 502.09 256.161C502.49 256.761 503.07 257.221 503.83 257.541C504.59 257.861 505.49 258.021 506.53 258.021Z" fill="#394452"/>
<path d="M462.141 263V221H469.341V257.36H488.061V263H462.141Z" fill="#394452"/>
<path d="M425.024 263.721C422.144 263.721 419.544 263.061 417.224 261.741C414.944 260.381 413.144 258.521 411.824 256.161C410.544 253.761 409.904 251.021 409.904 247.941C409.904 244.781 410.564 242.021 411.884 239.661C413.204 237.261 415.004 235.401 417.284 234.081C419.604 232.721 422.204 232.041 425.084 232.041C427.964 232.041 430.544 232.721 432.824 234.081C435.144 235.401 436.944 237.241 438.224 239.601C439.544 241.961 440.204 244.721 440.204 247.881C440.204 251.041 439.544 253.801 438.224 256.161C436.904 258.521 435.084 260.381 432.764 261.741C430.484 263.061 427.904 263.721 425.024 263.721ZM425.024 257.541C426.464 257.541 427.764 257.181 428.924 256.461C430.124 255.741 431.084 254.661 431.804 253.221C432.524 251.781 432.884 250.001 432.884 247.881C432.884 245.761 432.524 244.001 431.804 242.601C431.124 241.161 430.184 240.081 428.984 239.361C427.824 238.641 426.524 238.281 425.084 238.281C423.684 238.281 422.384 238.641 421.184 239.361C419.984 240.081 419.024 241.161 418.304 242.601C417.584 244.001 417.224 245.761 417.224 247.881C417.224 250.001 417.584 251.781 418.304 253.221C419.024 254.661 419.964 255.741 421.124 256.461C422.324 257.181 423.624 257.541 425.024 257.541Z" fill="#394452"/>
<path d="M399.572 263.001C397.532 263.001 395.752 262.681 394.232 262.041C392.752 261.401 391.592 260.341 390.752 258.861C389.912 257.381 389.492 255.381 389.492 252.861V238.821H384.332V232.761H389.492L390.332 224.781H396.692V232.761H404.912V238.821H396.692V252.861C396.692 254.381 397.012 255.441 397.652 256.041C398.332 256.601 399.452 256.881 401.012 256.881H404.732V263.001H399.572Z" fill="#394452"/>
<path d="M350.436 263.721C347.436 263.721 344.796 263.081 342.516 261.801C340.236 260.481 338.456 258.641 337.176 256.281C335.896 253.921 335.256 251.201 335.256 248.121C335.256 244.921 335.876 242.121 337.116 239.721C338.396 237.321 340.176 235.441 342.456 234.081C344.776 232.721 347.456 232.041 350.496 232.041C353.456 232.041 356.036 232.701 358.236 234.021C360.436 235.341 362.136 237.121 363.336 239.361C364.536 241.561 365.136 244.041 365.136 246.801C365.136 247.201 365.136 247.641 365.136 248.121C365.136 248.601 365.096 249.101 365.016 249.621H340.416V245.001H357.876C357.796 242.801 357.056 241.081 355.656 239.841C354.256 238.561 352.516 237.921 350.436 237.921C348.956 237.921 347.596 238.261 346.356 238.941C345.116 239.621 344.136 240.641 343.416 242.001C342.696 243.321 342.336 245.001 342.336 247.041V248.781C342.336 250.661 342.676 252.281 343.356 253.641C344.076 255.001 345.036 256.041 346.236 256.761C347.476 257.441 348.856 257.781 350.376 257.781C352.056 257.781 353.436 257.421 354.516 256.701C355.636 255.981 356.456 255.021 356.976 253.821H364.296C363.736 255.701 362.816 257.401 361.536 258.921C360.256 260.401 358.676 261.581 356.796 262.461C354.916 263.301 352.796 263.721 350.436 263.721Z" fill="#394452"/>
<path d="M280.729 263.001V232.761H287.089L287.688 236.901C288.648 235.381 289.909 234.201 291.469 233.361C293.069 232.481 294.888 232.041 296.928 232.041C298.448 232.041 299.809 232.241 301.009 232.641C302.249 233.041 303.329 233.641 304.249 234.441C305.209 235.241 305.989 236.241 306.589 237.441C307.709 235.761 309.169 234.441 310.969 233.481C312.769 232.521 314.729 232.041 316.849 232.041C319.369 232.041 321.509 232.561 323.269 233.601C325.029 234.601 326.368 236.101 327.288 238.101C328.208 240.061 328.668 242.481 328.668 245.361V263.001H321.528V246.081C321.528 243.521 321.009 241.561 319.969 240.201C318.929 238.841 317.389 238.161 315.349 238.161C313.949 238.161 312.709 238.501 311.629 239.181C310.589 239.861 309.768 240.861 309.168 242.181C308.568 243.461 308.269 245.041 308.269 246.921V263.001H301.129V246.081C301.129 243.521 300.608 241.561 299.568 240.201C298.528 238.841 296.969 238.161 294.889 238.161C293.569 238.161 292.368 238.501 291.288 239.181C290.248 239.861 289.428 240.861 288.828 242.181C288.228 243.461 287.928 245.041 287.928 246.921V263.001H280.729Z" fill="#394452"/>
<path d="M258.501 263.721C255.621 263.721 253.021 263.061 250.701 261.741C248.421 260.381 246.621 258.521 245.301 256.161C244.021 253.761 243.381 251.021 243.381 247.941C243.381 244.781 244.041 242.021 245.361 239.661C246.681 237.261 248.481 235.401 250.761 234.081C253.081 232.721 255.681 232.041 258.561 232.041C261.441 232.041 264.021 232.721 266.301 234.081C268.621 235.401 270.421 237.241 271.701 239.601C273.021 241.961 273.681 244.721 273.681 247.881C273.681 251.041 273.021 253.801 271.701 256.161C270.381 258.521 268.561 260.381 266.241 261.741C263.961 263.061 261.381 263.721 258.501 263.721ZM258.501 257.541C259.941 257.541 261.241 257.181 262.401 256.461C263.601 255.741 264.561 254.661 265.281 253.221C266.001 251.781 266.361 250.001 266.361 247.881C266.361 245.761 266.001 244.001 265.281 242.601C264.601 241.161 263.661 240.081 262.461 239.361C261.301 238.641 260.001 238.281 258.561 238.281C257.161 238.281 255.861 238.641 254.661 239.361C253.461 240.081 252.501 241.161 251.781 242.601C251.061 244.001 250.701 245.761 250.701 247.881C250.701 250.001 251.061 251.781 251.781 253.221C252.501 254.661 253.441 255.741 254.601 256.461C255.801 257.181 257.101 257.541 258.501 257.541Z" fill="#394452"/>
<path d="M222.999 263.721C220.039 263.721 217.379 263.061 215.019 261.741C212.699 260.381 210.879 258.521 209.559 256.161C208.279 253.761 207.639 251.041 207.639 248.001C207.639 244.841 208.279 242.081 209.559 239.721C210.879 237.321 212.699 235.441 215.019 234.081C217.379 232.721 220.059 232.041 223.059 232.041C226.819 232.041 229.979 233.041 232.539 235.041C235.099 237.001 236.739 239.701 237.459 243.141H229.899C229.499 241.621 228.659 240.421 227.379 239.541C226.139 238.661 224.659 238.221 222.939 238.221C221.459 238.221 220.099 238.601 218.859 239.361C217.659 240.121 216.699 241.221 215.979 242.661C215.299 244.101 214.959 245.841 214.959 247.881C214.959 249.441 215.159 250.821 215.559 252.021C215.959 253.221 216.519 254.241 217.239 255.081C217.999 255.881 218.859 256.501 219.819 256.941C220.779 257.381 221.819 257.601 222.939 257.601C224.099 257.601 225.139 257.421 226.059 257.061C227.019 256.661 227.819 256.081 228.459 255.321C229.139 254.561 229.619 253.661 229.899 252.621H237.459C236.739 255.981 235.099 258.681 232.539 260.721C229.979 262.721 226.799 263.721 222.999 263.721Z" fill="#394452"/>
<path d="M193.424 263.001V219.801H200.624V263.001H193.424Z" fill="#394452"/>
<path d="M172.076 263.721C169.076 263.721 166.436 263.081 164.156 261.801C161.876 260.481 160.096 258.641 158.816 256.281C157.536 253.921 156.896 251.201 156.896 248.121C156.896 244.921 157.516 242.121 158.756 239.721C160.036 237.321 161.816 235.441 164.096 234.081C166.416 232.721 169.096 232.041 172.136 232.041C175.096 232.041 177.676 232.701 179.876 234.021C182.076 235.341 183.777 237.121 184.977 239.361C186.177 241.561 186.776 244.041 186.776 246.801C186.776 247.201 186.776 247.641 186.776 248.121C186.776 248.601 186.736 249.101 186.656 249.621H162.056V245.001H179.516C179.436 242.801 178.697 241.081 177.297 239.841C175.897 238.561 174.156 237.921 172.076 237.921C170.596 237.921 169.236 238.261 167.996 238.941C166.756 239.621 165.776 240.641 165.056 242.001C164.336 243.321 163.977 245.001 163.977 247.041V248.781C163.977 250.661 164.316 252.281 164.996 253.641C165.716 255.001 166.676 256.041 167.876 256.761C169.116 257.441 170.496 257.781 172.016 257.781C173.696 257.781 175.076 257.421 176.156 256.701C177.276 255.981 178.097 255.021 178.617 253.821H185.936C185.376 255.701 184.457 257.401 183.177 258.921C181.897 260.401 180.316 261.581 178.436 262.461C176.556 263.301 174.436 263.721 172.076 263.721Z" fill="#394452"/>
<path d="M109.604 263L98.4443 221H106.124L113.984 254.78L123.104 221H131.084L139.904 254.84L147.824 221H155.564L144.104 263H135.584L126.944 231.2L118.064 263H109.604Z" fill="#394452"/>
<path d="M744.839 316.43L744.126 288.025H750.083L749.485 316.43H744.839ZM746.794 328.505C745.859 328.505 745.062 328.168 744.402 327.493C743.743 326.803 743.398 325.952 743.367 324.94C743.352 324.189 743.521 323.507 743.873 322.893C744.226 322.28 744.694 321.789 745.276 321.421C745.874 321.053 746.495 320.869 747.139 320.869C748.259 320.869 749.11 321.222 749.692 321.927C750.275 322.633 750.574 323.461 750.589 324.411C750.605 325.178 750.436 325.876 750.083 326.504C749.731 327.118 749.263 327.608 748.68 327.976C748.113 328.329 747.484 328.505 746.794 328.505Z" fill="#5B6875"/>
<path d="M731.394 328V324.596L731.118 324.458V306.334L731.302 306.196L731.118 301.136V290.602H736.408V328H731.394ZM724.241 328.368C722.447 328.368 720.775 327.923 719.227 327.034C717.693 326.144 716.451 324.795 715.501 322.986C714.565 321.176 714.098 318.884 714.098 316.109C714.098 313.333 714.634 310.895 715.708 308.795C716.781 306.679 718.276 305.03 720.193 303.85C722.125 302.654 724.386 302.056 726.978 302.056C728.557 302.056 729.883 302.247 730.957 302.631C732.03 302.999 732.712 303.313 733.004 303.574L731.118 306.955C730.658 306.556 730.044 306.28 729.278 306.127C728.526 305.973 727.629 305.897 726.587 305.897C725.283 305.897 724.103 306.257 723.045 306.978C722.002 307.698 721.166 308.772 720.538 310.198C719.909 311.624 719.587 313.387 719.572 315.488C719.526 318.493 720.047 320.693 721.136 322.089C722.224 323.484 723.75 324.182 725.713 324.182C726.909 324.182 727.974 323.959 728.91 323.515C729.86 323.07 730.596 322.641 731.118 322.227L731.992 324.849C731.624 325.232 731.133 325.7 730.52 326.252C729.906 326.804 729.094 327.294 728.082 327.724C727.07 328.153 725.789 328.368 724.241 328.368Z" fill="#5B6875"/>
<path d="M700.085 328.368C696.405 328.368 693.568 327.203 691.575 324.872C689.582 322.541 688.585 319.306 688.585 315.166C688.585 312.682 689.022 310.459 689.896 308.496C690.785 306.533 692.089 304.977 693.806 303.827C695.539 302.677 697.662 302.087 700.177 302.056C701.465 302.025 702.676 302.209 703.811 302.608C704.946 303.007 705.95 303.612 706.824 304.425C707.698 305.222 708.388 306.234 708.894 307.461C709.415 308.688 709.699 310.121 709.745 311.762C709.745 312.728 709.737 313.594 709.722 314.361C709.707 315.112 709.638 315.779 709.515 316.362H691.667L692.127 313.004H704.777C704.854 311.777 704.777 310.62 704.547 309.531C704.332 308.427 703.857 307.538 703.121 306.863C702.4 306.173 701.327 305.828 699.901 305.828C698.705 305.828 697.632 306.165 696.681 306.84C695.73 307.499 694.994 308.619 694.473 310.198C693.952 311.777 693.737 313.939 693.829 316.684C693.921 318.616 694.312 320.142 695.002 321.261C695.692 322.38 696.597 323.178 697.716 323.653C698.835 324.128 700.085 324.366 701.465 324.366C702.048 324.366 702.761 324.305 703.604 324.182C704.447 324.044 705.26 323.875 706.042 323.676C706.839 323.461 707.445 323.231 707.859 322.986L708.871 326.022C708.304 326.482 707.529 326.888 706.548 327.241C705.582 327.594 704.532 327.87 703.397 328.069C702.262 328.268 701.158 328.368 700.085 328.368Z" fill="#5B6875"/>
<path d="M677.966 328.367C676.755 328.367 675.689 328.175 674.769 327.792C673.849 327.409 673.128 326.734 672.607 325.768C672.101 324.787 671.848 323.399 671.848 321.605V306.287H668.536V303.435C669.671 303.113 670.537 302.845 671.135 302.63C671.733 302.4 672.17 301.917 672.446 301.181C672.569 300.844 672.707 300.445 672.86 299.985C673.013 299.51 673.182 298.988 673.366 298.421C673.55 297.838 673.749 297.21 673.964 296.535H677.138V302.377H684.314V306.287H677.138V318.799C677.138 320.455 677.207 321.666 677.345 322.433C677.498 323.184 677.774 323.667 678.173 323.882C678.587 324.081 679.193 324.181 679.99 324.181C680.419 324.181 680.91 324.135 681.462 324.043C682.029 323.936 682.566 323.805 683.072 323.652C683.593 323.499 683.992 323.338 684.268 323.169L685.142 326.205C684.682 326.558 684.061 326.903 683.279 327.24C682.512 327.562 681.661 327.83 680.726 328.045C679.806 328.26 678.886 328.367 677.966 328.367Z" fill="#5B6875"/>
<path d="M656.837 309.186L656.515 305.69C656.745 305.214 657.228 304.693 657.964 304.126C658.7 303.543 659.567 303.045 660.563 302.631C661.575 302.217 662.603 302.01 663.645 302.01C664.228 302.01 664.726 302.033 665.14 302.079C665.57 302.125 665.884 302.209 666.083 302.332V307.3C665.853 307.177 665.501 307.047 665.025 306.909C664.565 306.771 663.814 306.702 662.771 306.702C661.821 306.702 660.962 306.84 660.195 307.116C659.444 307.376 658.785 307.698 658.217 308.082C657.65 308.465 657.19 308.833 656.837 309.186ZM651.823 328V302.424H656.331L656.699 305.69L657.113 307.622V328H651.823Z" fill="#5B6875"/>
<path d="M632.66 328.367C631.127 328.367 629.762 328.068 628.566 327.47C627.385 326.857 626.45 325.998 625.76 324.894C625.085 323.775 624.748 322.456 624.748 320.938C624.748 319.298 625.185 317.91 626.059 316.775C626.948 315.625 628.137 314.728 629.624 314.084C630.605 313.686 631.671 313.371 632.821 313.141C633.971 312.896 635.121 312.727 636.271 312.635C637.421 312.528 638.487 312.474 639.468 312.474L640.572 313.877L639.468 315.74C638.87 315.74 638.149 315.786 637.306 315.878C636.478 315.955 635.658 316.085 634.845 316.269C634.032 316.438 633.342 316.66 632.775 316.936C631.993 317.289 631.341 317.741 630.82 318.293C630.299 318.845 630.038 319.612 630.038 320.593C630.038 321.881 630.391 322.855 631.096 323.514C631.817 324.174 632.882 324.503 634.293 324.503C635.014 324.503 635.742 324.396 636.478 324.181C637.214 323.967 637.85 323.721 638.387 323.445C638.939 323.169 639.299 322.932 639.468 322.732L640.526 323.859L639.767 325.837C639.092 326.451 638.119 327.026 636.846 327.562C635.573 328.099 634.178 328.367 632.66 328.367ZM644.781 327.999H639.767V324.181H639.468V310.059C639.468 308.557 639.069 307.568 638.272 307.092C637.49 306.602 636.371 306.356 634.914 306.356C633.948 306.356 632.951 306.456 631.924 306.655C630.897 306.839 629.954 307.077 629.095 307.368C628.236 307.644 627.577 307.928 627.117 308.219L625.875 304.401C626.228 304.187 626.902 303.888 627.899 303.504C628.911 303.121 630.084 302.776 631.418 302.469C632.767 302.147 634.101 301.986 635.42 301.986C637.337 301.986 638.993 302.209 640.388 302.653C641.799 303.098 642.88 303.926 643.631 305.137C644.398 306.333 644.781 308.074 644.781 310.358V327.999Z" fill="#5B6875"/>
<path d="M614.267 328.367C613.056 328.367 611.99 328.175 611.07 327.792C610.15 327.409 609.429 326.734 608.908 325.768C608.402 324.787 608.149 323.399 608.149 321.605V306.287H604.837V303.435C605.972 303.113 606.838 302.845 607.436 302.63C608.034 302.4 608.471 301.917 608.747 301.181C608.87 300.844 609.008 300.445 609.161 299.985C609.314 299.51 609.483 298.988 609.667 298.421C609.851 297.838 610.05 297.21 610.265 296.535H613.439V302.377H620.615V306.287H613.439V318.799C613.439 320.455 613.508 321.666 613.646 322.433C613.799 323.184 614.075 323.667 614.474 323.882C614.888 324.081 615.494 324.181 616.291 324.181C616.72 324.181 617.211 324.135 617.763 324.043C618.33 323.936 618.867 323.805 619.373 323.652C619.894 323.499 620.293 323.338 620.569 323.169L621.443 326.205C620.983 326.558 620.362 326.903 619.58 327.24C618.813 327.562 617.962 327.83 617.027 328.045C616.107 328.26 615.187 328.367 614.267 328.367Z" fill="#5B6875"/>
<path d="M583.471 326.481L584.207 322.571C584.437 322.739 584.912 322.969 585.633 323.261C586.369 323.537 587.243 323.797 588.255 324.043C589.282 324.273 590.34 324.395 591.429 324.411C592.901 324.426 594.02 324.173 594.787 323.652C595.553 323.13 595.937 322.402 595.937 321.467C595.937 320.807 595.707 320.232 595.247 319.742C594.787 319.251 594.15 318.799 593.338 318.385C592.54 317.955 591.628 317.511 590.601 317.051C589.221 316.422 588.002 315.74 586.944 315.004C585.886 314.268 585.058 313.401 584.46 312.405C583.877 311.408 583.593 310.212 583.609 308.817C583.639 307.299 584.076 306.041 584.92 305.045C585.778 304.033 586.913 303.281 588.324 302.791C589.734 302.3 591.306 302.055 593.039 302.055C594.649 302.055 596.059 302.223 597.271 302.561C598.482 302.883 599.279 303.159 599.663 303.389L598.881 307.391C598.605 307.161 598.175 306.938 597.593 306.724C597.025 306.494 596.366 306.31 595.615 306.172C594.863 306.034 594.097 305.965 593.315 305.965C591.751 305.965 590.57 306.195 589.773 306.655C588.975 307.099 588.561 307.728 588.531 308.541C588.515 309.66 588.899 310.496 589.681 311.048C590.478 311.6 591.429 312.144 592.533 312.681C594.112 313.447 595.538 314.206 596.811 314.958C598.083 315.694 599.088 316.545 599.824 317.511C600.575 318.461 600.951 319.642 600.951 321.053C600.951 323.445 600.13 325.262 598.49 326.504C596.849 327.746 594.603 328.367 591.751 328.367C590.57 328.367 589.42 328.275 588.301 328.091C587.197 327.907 586.215 327.669 585.357 327.378C584.513 327.086 583.885 326.787 583.471 326.481Z" fill="#5B6875"/>
<path d="M564.449 328.367C563.237 328.367 562.172 328.175 561.252 327.792C560.332 327.409 559.611 326.734 559.09 325.768C558.584 324.787 558.331 323.399 558.331 321.605V306.287H555.019V303.435C556.153 303.113 557.02 302.845 557.618 302.63C558.216 302.4 558.653 301.917 558.929 301.181C559.051 300.844 559.189 300.445 559.343 299.985C559.496 299.51 559.665 298.988 559.849 298.421C560.033 297.838 560.232 297.21 560.447 296.535H563.621V302.377H570.797V306.287H563.621V318.799C563.621 320.455 563.69 321.666 563.828 322.433C563.981 323.184 564.257 323.667 564.656 323.882C565.07 324.081 565.675 324.181 566.473 324.181C566.902 324.181 567.393 324.135 567.945 324.043C568.512 323.936 569.049 323.805 569.555 323.652C570.076 323.499 570.475 323.338 570.751 323.169L571.625 326.205C571.165 326.558 570.544 326.903 569.762 327.24C568.995 327.562 568.144 327.83 567.209 328.045C566.289 328.26 565.369 328.367 564.449 328.367Z" fill="#5B6875"/>
<path d="M541.466 328.368C537.786 328.368 534.949 327.203 532.956 324.872C530.962 322.541 529.966 319.306 529.966 315.166C529.966 312.682 530.403 310.459 531.277 308.496C532.166 306.533 533.469 304.977 535.187 303.827C536.919 302.677 539.043 302.087 541.558 302.056C542.846 302.025 544.057 302.209 545.192 302.608C546.326 303.007 547.331 303.612 548.205 304.425C549.079 305.222 549.769 306.234 550.275 307.461C550.796 308.688 551.08 310.121 551.126 311.762C551.126 312.728 551.118 313.594 551.103 314.361C551.087 315.112 551.018 315.779 550.896 316.362H533.048L533.508 313.004H546.158C546.234 311.777 546.158 310.62 545.928 309.531C545.713 308.427 545.238 307.538 544.502 306.863C543.781 306.173 542.708 305.828 541.282 305.828C540.086 305.828 539.012 306.165 538.062 306.84C537.111 307.499 536.375 308.619 535.854 310.198C535.332 311.777 535.118 313.939 535.21 316.684C535.302 318.616 535.693 320.142 536.383 321.261C537.073 322.38 537.977 323.178 539.097 323.653C540.216 324.128 541.466 324.366 542.846 324.366C543.428 324.366 544.141 324.305 544.985 324.182C545.828 324.044 546.641 323.875 547.423 323.676C548.22 323.461 548.826 323.231 549.24 322.986L550.252 326.022C549.684 326.482 548.91 326.888 547.929 327.241C546.963 327.594 545.912 327.87 544.778 328.069C543.643 328.268 542.539 328.368 541.466 328.368Z" fill="#5B6875"/>
<path d="M513.599 339.592C510.226 339.592 507.558 338.971 505.595 337.729C503.633 336.487 502.651 334.593 502.651 332.048C502.651 331.097 502.881 330.246 503.341 329.495C503.801 328.759 504.369 328.138 505.043 327.632C505.718 327.126 506.377 326.742 507.021 326.482L510.425 326.988C510.103 327.279 509.743 327.586 509.344 327.908C508.946 328.23 508.593 328.651 508.286 329.173C507.995 329.709 507.849 330.422 507.849 331.312C507.849 332.324 508.049 333.182 508.447 333.888C508.846 334.608 509.475 335.153 510.333 335.521C511.207 335.904 512.357 336.096 513.783 336.096C515.102 336.096 516.321 335.95 517.44 335.659C518.56 335.383 519.457 334.953 520.131 334.371C520.806 333.803 521.143 333.09 521.143 332.232C521.143 331.327 520.975 330.56 520.637 329.932C520.315 329.303 519.702 328.82 518.797 328.483C517.908 328.161 516.605 328 514.887 328H512.357C511.483 328 510.709 327.984 510.034 327.954C509.36 327.908 508.754 327.816 508.217 327.678C508.033 327.632 507.857 327.555 507.688 327.448C507.52 327.325 507.343 327.233 507.159 327.172C506.009 326.727 505.235 326.114 504.836 325.332C504.453 324.55 504.261 323.768 504.261 322.986C504.261 322.388 504.415 321.782 504.721 321.169C505.043 320.54 505.488 319.942 506.055 319.375C506.638 318.792 507.313 318.278 508.079 317.834L511.368 318.662C510.816 318.876 510.31 319.252 509.85 319.789C509.406 320.31 509.183 320.87 509.183 321.468C509.183 322.403 509.406 323.039 509.85 323.377C510.31 323.699 511.069 323.86 512.127 323.86H516.727C518.705 323.86 520.315 324.067 521.557 324.481C522.799 324.895 523.758 325.454 524.432 326.16C525.107 326.85 525.567 327.616 525.812 328.46C526.073 329.318 526.203 330.192 526.203 331.082C526.203 332.416 525.874 333.604 525.214 334.647C524.555 335.705 523.643 336.602 522.477 337.338C521.312 338.074 519.97 338.633 518.452 339.017C516.934 339.4 515.317 339.592 513.599 339.592ZM513.438 319.26C511.522 319.26 509.797 318.907 508.263 318.202C506.73 317.481 505.519 316.492 504.629 315.235C503.74 313.962 503.295 312.498 503.295 310.842C503.295 308.848 503.74 307.208 504.629 305.92C505.519 304.632 506.738 303.673 508.286 303.045C509.835 302.416 511.583 302.086 513.53 302.056C515.432 302.01 517.172 302.286 518.751 302.884C520.331 303.482 521.588 304.417 522.523 305.69C523.474 306.947 523.949 308.572 523.949 310.566C523.949 312.436 523.497 314.023 522.592 315.327C521.688 316.615 520.446 317.596 518.866 318.271C517.287 318.93 515.478 319.26 513.438 319.26ZM513.576 315.81C515.156 315.81 516.413 315.457 517.348 314.752C518.284 314.031 518.751 312.689 518.751 310.727C518.751 309.04 518.345 307.76 517.532 306.886C516.72 305.996 515.485 305.552 513.829 305.552C512.879 305.552 511.997 305.69 511.184 305.966C510.372 306.242 509.72 306.748 509.229 307.484C508.739 308.22 508.493 309.27 508.493 310.635C508.493 312.03 508.892 313.241 509.689 314.269C510.502 315.296 511.798 315.81 513.576 315.81ZM521.12 306.38L519.671 304.241C520.009 303.811 520.676 303.367 521.672 302.907C522.684 302.447 523.788 302.217 524.984 302.217H527.56V306.38H521.12Z" fill="#5B6875"/>
<path d="M478.233 328.367C476.148 328.367 474.377 327.999 472.92 327.263C471.463 326.527 470.283 325.522 469.378 324.25C468.473 322.977 467.814 321.52 467.4 319.88C467.001 318.224 466.81 316.483 466.825 314.659C466.871 311.914 467.415 309.606 468.458 307.736C469.501 305.865 470.911 304.454 472.69 303.504C474.469 302.538 476.47 302.055 478.693 302.055C481.484 302.055 483.715 302.691 485.386 303.964C487.073 305.221 488.284 306.892 489.02 308.978C489.771 311.048 490.132 313.294 490.101 315.717C490.055 318.461 489.511 320.777 488.468 322.663C487.441 324.533 486.038 325.952 484.259 326.918C482.496 327.884 480.487 328.367 478.233 328.367ZM478.371 324.618C480.472 324.648 482.051 323.859 483.109 322.249C484.182 320.623 484.719 318.377 484.719 315.51C484.719 313.731 484.504 312.121 484.075 310.68C483.646 309.223 482.971 308.058 482.051 307.184C481.146 306.31 479.981 305.865 478.555 305.85C476.47 305.804 474.898 306.555 473.84 308.104C472.782 309.652 472.253 311.86 472.253 314.728C472.253 316.506 472.468 318.139 472.897 319.627C473.326 321.114 473.993 322.31 474.898 323.215C475.803 324.119 476.96 324.587 478.371 324.618Z" fill="#5B6875"/>
<path d="M456.322 328.367C455.11 328.367 454.045 328.175 453.125 327.792C452.205 327.409 451.484 326.734 450.963 325.768C450.457 324.787 450.204 323.399 450.204 321.605V306.287H446.892V303.435C448.026 303.113 448.893 302.845 449.491 302.63C450.089 302.4 450.526 301.917 450.802 301.181C450.924 300.844 451.062 300.445 451.216 299.985C451.369 299.51 451.538 298.988 451.722 298.421C451.906 297.838 452.105 297.21 452.32 296.535H455.494V302.377H462.67V306.287H455.494V318.799C455.494 320.455 455.563 321.666 455.701 322.433C455.854 323.184 456.13 323.667 456.529 323.882C456.943 324.081 457.548 324.181 458.346 324.181C458.775 324.181 459.266 324.135 459.818 324.043C460.385 323.936 460.922 323.805 461.428 323.652C461.949 323.499 462.348 323.338 462.624 323.169L463.498 326.205C463.038 326.558 462.417 326.903 461.635 327.24C460.868 327.562 460.017 327.83 459.082 328.045C458.162 328.26 457.242 328.367 456.322 328.367Z" fill="#5B6875"/>
<path d="M435.698 302.377L418.954 319.857L419.414 318.615L419.506 323.031V327.999H414.354V312.773V290.693H419.506V310.197L419.322 315.809L418.08 314.935L429.488 302.377H435.698ZM422.174 315.395L425.762 311.945L436.802 327.999H430.776L422.174 315.395Z" fill="#5B6875"/>
<path d="M389.8 315.487C389.8 312.957 390.26 310.68 391.18 308.656C392.1 306.632 393.48 305.029 395.32 303.849C397.16 302.653 399.46 302.055 402.22 302.055C403.83 302.055 405.194 302.2 406.314 302.492C407.433 302.783 408.2 303.067 408.614 303.343L407.786 307.529C407.142 307.084 406.367 306.754 405.463 306.54C404.558 306.31 403.462 306.195 402.174 306.195C401.024 306.195 399.912 306.478 398.839 307.046C397.765 307.598 396.868 308.487 396.148 309.714C395.427 310.94 395.028 312.558 394.952 314.567C394.89 316.683 395.166 318.469 395.78 319.926C396.408 321.367 397.267 322.463 398.356 323.215C399.46 323.951 400.686 324.319 402.036 324.319C403.308 324.319 404.481 324.158 405.555 323.836C406.643 323.514 407.464 323.184 408.016 322.847L409.028 325.929C408.246 326.665 407.142 327.255 405.716 327.7C404.29 328.144 402.772 328.367 401.162 328.367C398.724 328.367 396.661 327.799 394.975 326.665C393.288 325.53 392 323.997 391.111 322.065C390.237 320.117 389.8 317.925 389.8 315.487Z" fill="#5B6875"/>
<path d="M374.419 328.367C372.333 328.367 370.562 327.999 369.106 327.263C367.649 326.527 366.468 325.522 365.564 324.25C364.659 322.977 364 321.52 363.586 319.88C363.187 318.224 362.995 316.483 363.011 314.659C363.057 311.914 363.601 309.606 364.644 307.736C365.686 305.865 367.097 304.454 368.876 303.504C370.654 302.538 372.655 302.055 374.879 302.055C377.669 302.055 379.9 302.691 381.572 303.964C383.258 305.221 384.47 306.892 385.206 308.978C385.957 311.048 386.317 313.294 386.287 315.717C386.241 318.461 385.696 320.777 384.654 322.663C383.626 324.533 382.223 325.952 380.445 326.918C378.681 327.884 376.673 328.367 374.419 328.367ZM374.557 324.618C376.657 324.648 378.237 323.859 379.295 322.249C380.368 320.623 380.905 318.377 380.905 315.51C380.905 313.731 380.69 312.121 380.261 310.68C379.831 309.223 379.157 308.058 378.237 307.184C377.332 306.31 376.167 305.865 374.741 305.85C372.655 305.804 371.084 306.555 370.026 308.104C368.968 309.652 368.439 311.86 368.439 314.728C368.439 316.506 368.653 318.139 369.083 319.627C369.512 321.114 370.179 322.31 371.084 323.215C371.988 324.119 373.146 324.587 374.557 324.618Z" fill="#5B6875"/>
<path d="M351.4 328V290.602H356.736V328H351.4Z" fill="#5B6875"/>
<path d="M322.848 290.693H328.138V301.135L327.954 305.643L328.138 305.781V324.227L322.848 326.573V290.693ZM332.14 328.413C331.204 328.413 330.238 328.344 329.242 328.206C328.26 328.084 327.325 327.923 326.436 327.723C325.546 327.524 324.78 327.325 324.136 327.125C323.507 326.911 323.078 326.727 322.848 326.573L328.138 323.675C328.552 323.967 329.134 324.197 329.886 324.365C330.652 324.519 331.588 324.595 332.692 324.595C334.01 324.595 335.191 324.227 336.234 323.491C337.292 322.74 338.127 321.644 338.741 320.202C339.369 318.761 339.699 316.99 339.73 314.889C339.76 311.853 339.231 309.638 338.143 308.242C337.054 306.847 335.528 306.149 333.566 306.149C332.37 306.149 331.304 306.379 330.369 306.839C329.433 307.284 328.69 307.713 328.138 308.127L327.31 305.505C327.662 305.137 328.145 304.685 328.759 304.148C329.372 303.596 330.185 303.113 331.197 302.699C332.209 302.27 333.489 302.055 335.038 302.055C336.847 302.055 338.518 302.5 340.052 303.389C341.585 304.263 342.819 305.605 343.755 307.414C344.69 309.208 345.158 311.485 345.158 314.245C345.158 317.021 344.613 319.474 343.525 321.605C342.451 323.737 340.933 325.408 338.971 326.619C337.023 327.815 334.746 328.413 332.14 328.413Z" fill="#5B6875"/>
<path d="M302.284 328.367C301.073 328.367 300.007 328.175 299.087 327.792C298.167 327.409 297.447 326.734 296.925 325.768C296.419 324.787 296.167 323.399 296.167 321.605V306.287H292.854V303.435C293.989 303.113 294.855 302.845 295.453 302.63C296.051 302.4 296.488 301.917 296.764 301.181C296.887 300.844 297.025 300.445 297.178 299.985C297.332 299.51 297.501 298.988 297.685 298.421C297.869 297.838 298.068 297.21 298.282 296.535H301.456V302.377H308.633V306.287H301.456V318.799C301.456 320.455 301.526 321.666 301.664 322.433C301.817 323.184 302.093 323.667 302.492 323.882C302.906 324.081 303.511 324.181 304.308 324.181C304.738 324.181 305.228 324.135 305.78 324.043C306.348 323.936 306.885 323.805 307.391 323.652C307.912 323.499 308.31 323.338 308.586 323.169L309.461 326.205C309.001 326.558 308.379 326.903 307.597 327.24C306.831 327.562 305.98 327.83 305.044 328.045C304.124 328.26 303.204 328.367 302.284 328.367Z" fill="#5B6875"/>
<path d="M271.488 326.481L272.224 322.571C272.454 322.739 272.93 322.969 273.65 323.261C274.386 323.537 275.26 323.797 276.272 324.043C277.3 324.273 278.358 324.395 279.446 324.411C280.918 324.426 282.038 324.173 282.804 323.652C283.571 323.13 283.954 322.402 283.954 321.467C283.954 320.807 283.724 320.232 283.264 319.742C282.804 319.251 282.168 318.799 281.355 318.385C280.558 317.955 279.646 317.511 278.618 317.051C277.238 316.422 276.019 315.74 274.961 315.004C273.903 314.268 273.075 313.401 272.477 312.405C271.895 311.408 271.611 310.212 271.626 308.817C271.657 307.299 272.094 306.041 272.937 305.045C273.796 304.033 274.931 303.281 276.341 302.791C277.752 302.3 279.324 302.055 281.056 302.055C282.666 302.055 284.077 302.223 285.288 302.561C286.5 302.883 287.297 303.159 287.68 303.389L286.898 307.391C286.622 307.161 286.193 306.938 285.61 306.724C285.043 306.494 284.384 306.31 283.632 306.172C282.881 306.034 282.114 305.965 281.332 305.965C279.768 305.965 278.588 306.195 277.79 306.655C276.993 307.099 276.579 307.728 276.548 308.541C276.533 309.66 276.916 310.496 277.698 311.048C278.496 311.6 279.446 312.144 280.55 312.681C282.13 313.447 283.556 314.206 284.828 314.958C286.101 315.694 287.105 316.545 287.841 317.511C288.593 318.461 288.968 319.642 288.968 321.053C288.968 323.445 288.148 325.262 286.507 326.504C284.867 327.746 282.62 328.367 279.768 328.367C278.588 328.367 277.438 328.275 276.318 328.091C275.214 327.907 274.233 327.669 273.374 327.378C272.531 327.086 271.902 326.787 271.488 326.481Z" fill="#5B6875"/>
<path d="M259.054 309.186L258.732 305.69C258.962 305.214 259.445 304.693 260.181 304.126C260.917 303.543 261.783 303.045 262.78 302.631C263.792 302.217 264.819 302.01 265.862 302.01C266.445 302.01 266.943 302.033 267.357 302.079C267.786 302.125 268.101 302.209 268.3 302.332V307.3C268.07 307.177 267.717 307.047 267.242 306.909C266.782 306.771 266.031 306.702 264.988 306.702C264.037 306.702 263.179 306.84 262.412 307.116C261.661 307.376 261.001 307.698 260.434 308.082C259.867 308.465 259.407 308.833 259.054 309.186ZM254.04 328V302.424H258.548L258.916 305.69L259.33 307.622V328H254.04Z" fill="#5B6875"/>
<path d="M224.079 328V306.311H220.284V303.344L224.079 302.378V300.124C224.079 298.223 224.363 296.636 224.93 295.363C225.498 294.091 226.241 293.079 227.161 292.327C228.096 291.576 229.109 291.039 230.197 290.717C231.301 290.395 232.375 290.234 233.417 290.234C234.169 290.234 234.866 290.296 235.51 290.418C236.154 290.526 236.599 290.618 236.844 290.694V294.788C236.4 294.65 235.901 294.543 235.349 294.466C234.797 294.39 234.03 294.351 233.049 294.351C231.991 294.351 231.117 294.758 230.427 295.57C229.753 296.368 229.415 297.579 229.415 299.204V302.378H235.648V306.311H229.415V328H224.079ZM241.099 328V302.424H246.389V328H241.099ZM243.445 297.893C242.556 297.893 241.774 297.61 241.099 297.042C240.44 296.475 240.11 295.701 240.11 294.719C240.11 294.045 240.294 293.439 240.662 292.902C241.046 292.35 241.529 291.913 242.111 291.591C242.694 291.254 243.299 291.085 243.928 291.085C245.017 291.085 245.837 291.392 246.389 292.005C246.941 292.619 247.217 293.37 247.217 294.259C247.217 295.317 246.834 296.191 246.067 296.881C245.316 297.556 244.442 297.893 243.445 297.893Z" fill="#5B6875"/>
<path d="M200.251 309.186L199.929 305.69C200.159 305.214 200.642 304.693 201.378 304.126C202.114 303.543 202.981 303.045 203.977 302.631C204.989 302.217 206.017 302.01 207.059 302.01C207.642 302.01 208.14 302.033 208.554 302.079C208.984 302.125 209.298 302.209 209.497 302.332V307.3C209.267 307.177 208.915 307.047 208.439 306.909C207.979 306.771 207.228 306.702 206.185 306.702C205.235 306.702 204.376 306.84 203.609 307.116C202.858 307.376 202.199 307.698 201.631 308.082C201.064 308.465 200.604 308.833 200.251 309.186ZM195.237 328V302.424H199.745L200.113 305.69L200.527 307.622V328H195.237Z" fill="#5B6875"/>
<path d="M174.887 328.367C173.216 328.367 171.867 328.106 170.839 327.585C169.812 327.064 169.03 326.32 168.493 325.354C167.957 324.373 167.589 323.207 167.389 321.858C167.205 320.509 167.113 319.014 167.113 317.373V302.377H172.403V317.327C172.403 319.351 172.557 320.838 172.863 321.789C173.185 322.74 173.676 323.353 174.335 323.629C175.01 323.905 175.884 324.043 176.957 324.043C177.586 324.043 178.253 323.951 178.958 323.767C179.679 323.568 180.354 323.338 180.982 323.077C181.611 322.801 182.109 322.54 182.477 322.295V302.377H187.767V328.367H185.329C184.624 328.367 184.064 328.26 183.65 328.045C183.236 327.846 183.029 327.324 183.029 326.481V324.687L183.121 325.699C182.431 326.159 181.619 326.596 180.683 327.01C179.763 327.409 178.797 327.738 177.785 327.999C176.773 328.244 175.807 328.367 174.887 328.367Z" fill="#5B6875"/>
<path d="M149.764 328.367C147.679 328.367 145.908 327.999 144.451 327.263C142.995 326.527 141.814 325.522 140.909 324.25C140.005 322.977 139.345 321.52 138.931 319.88C138.533 318.224 138.341 316.483 138.356 314.659C138.402 311.914 138.947 309.606 139.989 307.736C141.032 305.865 142.443 304.454 144.221 303.504C146 302.538 148.001 302.055 150.224 302.055C153.015 302.055 155.246 302.691 156.917 303.964C158.604 305.221 159.815 306.892 160.551 308.978C161.303 311.048 161.663 313.294 161.632 315.717C161.586 318.461 161.042 320.777 159.999 322.663C158.972 324.533 157.569 325.952 155.79 326.918C154.027 327.884 152.018 328.367 149.764 328.367ZM149.902 324.618C152.003 324.648 153.582 323.859 154.64 322.249C155.714 320.623 156.25 318.377 156.25 315.51C156.25 313.731 156.036 312.121 155.606 310.68C155.177 309.223 154.502 308.058 153.582 307.184C152.678 306.31 151.512 305.865 150.086 305.85C148.001 305.804 146.429 306.555 145.371 308.104C144.313 309.652 143.784 311.86 143.784 314.728C143.784 316.506 143.999 318.139 144.428 319.627C144.858 321.114 145.525 322.31 146.429 323.215C147.334 324.119 148.492 324.587 149.902 324.618Z" fill="#5B6875"/>
<path d="M114.504 339.039V334.715C114.765 334.807 115.141 334.884 115.631 334.945C116.137 335.006 116.513 335.037 116.758 335.037C117.402 335.037 118.169 334.853 119.058 334.485C119.948 334.132 120.799 333.404 121.611 332.3C122.439 331.211 123.076 329.563 123.52 327.355L123.842 327.999H121.634L112.48 302.377H118.184L123.52 318.983L125.682 326.159H124.302L126.188 318.983L130.742 302.377H136.446L127.936 328.781C126.924 331.863 125.721 334.217 124.325 335.842C122.93 337.483 121.404 338.533 119.748 338.993C119.426 339.1 119.005 339.192 118.483 339.269C117.962 339.361 117.525 339.407 117.172 339.407C116.942 339.407 116.636 339.384 116.252 339.338C115.869 339.307 115.501 339.261 115.148 339.2C114.811 339.154 114.596 339.1 114.504 339.039Z" fill="#5B6875"/>
<path d="M78.625 339.361V302.377H83.455V305.505L83.915 306.057V325.883L83.869 326.941L83.915 331.127V339.361H78.625ZM88.078 328.367C86.4986 328.367 85.18 328.167 84.122 327.769C83.064 327.37 82.3816 327.048 82.075 326.803L83.915 323.399C84.4056 323.813 85.019 324.112 85.755 324.296C86.5063 324.464 87.4033 324.549 88.446 324.549C89.7646 324.549 90.953 324.181 92.011 323.445C93.069 322.693 93.9046 321.605 94.518 320.179C95.1466 318.737 95.4763 316.982 95.507 314.912C95.5377 311.845 95.001 309.622 93.897 308.242C92.8083 306.846 91.2826 306.149 89.32 306.149C88.124 306.149 87.0583 306.379 86.123 306.839C85.203 307.283 84.467 307.72 83.915 308.15L83.087 305.528C83.4396 305.16 83.9226 304.7 84.536 304.148C85.1493 303.596 85.962 303.113 86.974 302.699C87.986 302.269 89.2587 302.055 90.792 302.055C92.6013 302.055 94.2727 302.499 95.806 303.389C97.3547 304.263 98.5966 305.604 99.532 307.414C100.467 309.208 100.935 311.485 100.935 314.245C100.935 317.02 100.398 319.473 99.325 321.605C98.267 323.721 96.772 325.377 94.84 326.573C92.9233 327.769 90.6693 328.367 88.078 328.367Z" fill="#5B6875"/>
<path d="M60.9088 328.367C58.8235 328.367 57.0525 327.999 55.5959 327.263C54.1392 326.527 52.9585 325.522 52.0538 324.25C51.1492 322.977 50.4898 321.52 50.0758 319.88C49.6772 318.224 49.4855 316.483 49.5009 314.659C49.5469 311.914 50.0912 309.606 51.1338 307.736C52.1765 305.865 53.5872 304.454 55.3658 303.504C57.1445 302.538 59.1455 302.055 61.3688 302.055C64.1595 302.055 66.3905 302.691 68.0619 303.964C69.7485 305.221 70.9599 306.892 71.6959 308.978C72.4472 311.048 72.8075 313.294 72.7769 315.717C72.7309 318.461 72.1865 320.777 71.1439 322.663C70.1165 324.533 68.7135 325.952 66.9348 326.918C65.1715 327.884 63.1628 328.367 60.9088 328.367ZM61.0468 324.618C63.1475 324.648 64.7268 323.859 65.7848 322.249C66.8582 320.623 67.3948 318.377 67.3948 315.51C67.3948 313.731 67.1802 312.121 66.7509 310.68C66.3215 309.223 65.6468 308.058 64.7268 307.184C63.8222 306.31 62.6568 305.865 61.2308 305.85C59.1455 305.804 57.5738 306.555 56.5158 308.104C55.4578 309.652 54.9288 311.86 54.9288 314.728C54.9288 316.506 55.1435 318.139 55.5728 319.627C56.0022 321.114 56.6692 322.31 57.5738 323.215C58.4785 324.119 59.6362 324.587 61.0468 324.618Z" fill="#5B6875"/>
<path d="M37.7689 309.186L37.4469 305.69C37.6769 305.214 38.1599 304.693 38.8959 304.126C39.6319 303.543 40.4982 303.045 41.4949 302.631C42.5069 302.217 43.5342 302.01 44.5769 302.01C45.1595 302.01 45.6579 302.033 46.0719 302.079C46.5012 302.125 46.8156 302.209 47.0149 302.332V307.3C46.7849 307.177 46.4322 307.047 45.9569 306.909C45.4969 306.771 44.7455 306.702 43.7029 306.702C42.7522 306.702 41.8936 306.84 41.1269 307.116C40.3756 307.376 39.7162 307.698 39.1489 308.082C38.5816 308.465 38.1216 308.833 37.7689 309.186ZM32.7549 328V302.424H37.2629L37.6309 305.69L38.0449 307.622V328H32.7549Z" fill="#5B6875"/>
<path d="M0.199219 327.999V293.821C0.505885 293.821 0.804889 293.821 1.09622 293.821C1.40289 293.821 1.70189 293.821 1.99323 293.821C2.28456 293.821 2.57588 293.821 2.86722 293.821C3.58788 293.821 4.38522 293.79 5.25922 293.729C6.13322 293.668 7.05323 293.606 8.01923 293.545C9.00056 293.484 9.99722 293.453 11.0092 293.453C16.5599 293.453 20.6692 294.902 23.3372 297.8C26.0052 300.683 27.3392 304.723 27.3392 309.921C27.3392 313.816 26.6492 317.151 25.2692 319.926C23.9046 322.701 21.9572 324.817 19.4272 326.274C16.8972 327.731 13.9072 328.428 10.4572 328.367C9.24588 328.336 7.89654 328.267 6.40921 328.16C4.92188 328.053 3.58789 327.999 2.40723 327.999C2.16189 327.999 1.91654 327.999 1.6712 327.999C1.42587 327.999 1.18054 327.999 0.935211 327.999C0.689878 327.999 0.444552 327.999 0.199219 327.999ZM5.62723 323.905C6.36323 324.058 7.24488 324.173 8.27222 324.25C9.31488 324.311 10.3039 324.334 11.2392 324.319C13.2786 324.288 15.0802 323.805 16.6442 322.87C18.2236 321.935 19.4579 320.47 20.3472 318.477C21.2366 316.484 21.6812 313.892 21.6812 310.703C21.6812 307.406 21.2442 304.792 20.3702 302.86C19.4962 300.913 18.1852 299.517 16.4372 298.674C14.7046 297.831 12.5425 297.409 9.9512 297.409C9.06187 297.409 8.24154 297.44 7.4902 297.501C6.73887 297.562 6.11789 297.639 5.62723 297.731V323.905Z" fill="#5B6875"/>
<defs>
<filter id="filter0_d_67_181" x="338" y="27" width="92" height="136" filterUnits="userSpaceOnUse" color-interpolation-filters="sRGB">
<feFlood flood-opacity="0" result="BackgroundImageFix"/>
<feColorMatrix in="SourceAlpha" type="matrix" values="0 0 0 0 0 0 0 0 0 0 0 0 0 0 0 0 0 0 127 0" result="hardAlpha"/>
<feOffset/>
<feGaussianBlur stdDeviation="4"/>
<feComposite in2="hardAlpha" operator="out"/>
<feColorMatrix type="matrix" values="0 0 0 0 0.136583 0 0 0 0 0.155599 0 0 0 0 0.299572 0 0 0 0.25 0"/>
<feBlend mode="normal" in2="BackgroundImageFix" result="effect1_dropShadow_67_181"/>
<feBlend mode="normal" in="SourceGraphic" in2="effect1_dropShadow_67_181" result="shape"/>
</filter>
</defs>
</svg>
