<svg width="444" height="148" viewBox="0 0 444 148" fill="none" xmlns="http://www.w3.org/2000/svg">
<path d="M397.848 146.266C393.095 146.266 389.53 145.269 387.153 143.276C384.776 141.282 383.588 138.906 383.588 136.146C383.588 134.306 384.01 132.657 384.853 131.201C385.773 129.744 386.923 128.709 388.303 128.096C390.373 130.549 393.44 131.776 397.503 131.776C399.803 131.776 402.141 130.626 404.518 128.326C406.971 126.102 409.003 122.576 410.613 117.746H401.183L383.473 74.7355C382.553 72.5122 381.748 70.8255 381.058 69.6755C380.368 68.5255 378.835 67.9505 376.458 67.9505C376.458 66.6472 376.65 65.3822 377.033 64.1555C377.416 62.9289 378.03 61.8555 378.873 60.9355H406.013C407.853 62.9289 408.773 65.2672 408.773 67.9505C406.856 67.9505 405.476 68.4489 404.633 69.4455C403.866 70.4422 403.483 71.7072 403.483 73.2405C403.483 73.7772 403.521 74.3905 403.598 75.0805C403.675 75.6939 403.828 76.3455 404.058 77.0355L414.753 108.201L422.343 75.5406C422.573 74.4672 422.688 73.5472 422.688 72.7805C422.688 69.5605 420.81 67.9505 417.053 67.9505C417.053 66.6472 417.206 65.3822 417.513 64.1555C417.82 62.9289 418.395 61.8555 419.238 60.9355H441.433C442.276 61.8555 442.851 62.9289 443.158 64.1555C443.541 65.3822 443.733 66.6472 443.733 67.9505C441.816 67.9505 440.321 68.4105 439.248 69.3305C438.251 70.2505 437.408 71.7839 436.718 73.9305L423.608 114.756C420.235 125.642 416.593 133.616 412.683 138.676C408.85 143.736 403.905 146.266 397.848 146.266Z" fill="white"/>
<path d="M341.221 123.495C337.081 123.495 333.171 122.46 329.491 120.39C325.888 118.243 322.974 115.023 320.751 110.73C318.528 106.436 317.416 101.031 317.416 94.5146C317.416 86.7713 318.834 80.3313 321.671 75.1946C324.584 70.0579 328.341 66.2246 332.941 63.6946C337.618 61.1646 342.601 59.8996 347.891 59.8996C348.888 59.8996 349.999 59.9379 351.226 60.0146C352.453 60.0913 353.679 60.2063 354.906 60.3596L354.561 53.4596V47.7096C354.561 45.9463 354.063 44.5663 353.066 43.5696C352.069 42.5729 349.999 42.0746 346.856 42.0746V37.3596C348.773 36.2863 351.034 35.3279 353.641 34.4846C356.248 33.6413 358.816 32.9896 361.346 32.5296C363.876 31.9929 365.908 31.7246 367.441 31.7246C369.204 31.7246 370.469 32.1463 371.236 32.9896C372.079 33.7563 372.501 35.0979 372.501 37.0146V109.235C372.501 112.991 374.341 115.215 378.021 115.905L378.136 119.125C377.063 120.581 375.414 121.655 373.191 122.345C370.968 123.111 368.706 123.495 366.406 123.495C364.413 123.495 362.304 123.035 360.081 122.115C357.858 121.271 356.286 119.93 355.366 118.09C353.756 120.236 351.763 121.655 349.386 122.345C347.086 123.111 344.364 123.495 341.221 123.495ZM349.156 113.72C351.533 113.72 353.334 113.03 354.561 111.65V71.3996C352.951 69.1763 350.804 68.0646 348.121 68.0646C346.051 68.0646 344.173 68.7929 342.486 70.2496C340.799 71.6296 339.458 73.9679 338.461 77.2646C337.464 80.4846 336.966 84.8929 336.966 90.4896C336.966 98.3863 338.116 104.251 340.416 108.085C342.793 111.841 345.706 113.72 349.156 113.72Z" fill="white"/>
<path d="M250.443 122C249.6 121.156 248.91 120.236 248.373 119.24C247.913 118.243 247.683 117.131 247.683 115.905C249.983 115.905 251.631 115.406 252.628 114.41C253.625 113.413 254.123 111.803 254.123 109.58V75.9997C254.123 74.0064 253.548 72.5497 252.398 71.6297C251.325 70.7097 249.331 70.2497 246.418 70.2497V65.0747C248.181 64.078 250.405 63.158 253.088 62.3147C255.848 61.4714 258.493 60.8197 261.023 60.3597C263.63 59.823 265.623 59.5547 267.003 59.5547C268.613 59.5547 269.916 60.053 270.913 61.0497C271.986 62.0464 272.6 64.193 272.753 67.4897C274.67 65.113 277.085 63.1964 279.998 61.7397C282.988 60.283 286.438 59.5547 290.348 59.5547C295.715 59.5547 299.74 60.9347 302.423 63.6947C305.183 66.378 306.563 70.978 306.563 77.4947V108.89C306.563 112.646 308.403 114.87 312.083 115.56L312.198 118.895C311.431 119.661 310.205 120.351 308.518 120.965C306.831 121.501 304.991 121.923 302.998 122.23C301.081 122.536 299.28 122.69 297.593 122.69C294.296 122.69 291.843 122.076 290.233 120.85C288.7 119.623 287.933 117.668 287.933 114.985V79.1047C287.933 75.9614 287.243 73.7764 285.863 72.5497C284.483 71.323 282.796 70.7097 280.803 70.7097C277.66 70.7097 275.015 71.9747 272.868 74.5047V109.58C272.868 111.803 273.328 113.413 274.248 114.41C275.245 115.406 276.893 115.905 279.193 115.905C279.193 118.205 278.311 120.236 276.548 122H250.443Z" fill="white"/>
<path d="M204.201 122.804C198.451 122.804 193.774 121.233 190.171 118.089C186.644 114.869 184.881 110.768 184.881 105.784C184.881 100.801 186.491 96.7759 189.711 93.7092C193.008 90.6426 198.068 89.1092 204.891 89.1092C207.114 89.1092 209.453 89.3392 211.906 89.7992C214.359 90.1826 216.353 90.7959 217.886 91.6392V76.3442C217.886 73.1242 217.043 70.9009 215.356 69.6742C213.746 68.3709 211.753 67.7192 209.376 67.7192C206.846 67.7192 204.776 68.3326 203.166 69.5592C204.699 70.0959 205.811 70.9392 206.501 72.0892C207.191 73.1626 207.536 74.3509 207.536 75.6542C207.536 78.1842 206.616 80.2159 204.776 81.7492C203.013 83.2059 200.828 83.9342 198.221 83.9342C195.308 83.9342 192.969 83.0909 191.206 81.4042C189.443 79.6409 188.561 77.4559 188.561 74.8492C188.561 72.2426 189.443 69.7892 191.206 67.4892C192.969 65.1126 195.691 63.1576 199.371 61.6242C203.128 60.0909 207.958 59.3242 213.861 59.3242C229.271 59.3242 236.976 65.4192 236.976 77.6092V108.084C236.976 111.764 238.739 113.988 242.266 114.754V118.434C241.269 119.891 239.583 121.003 237.206 121.769C234.829 122.459 232.529 122.804 230.306 122.804C225.093 122.804 221.413 121.003 219.266 117.399C217.733 118.779 215.701 120.044 213.171 121.194C210.641 122.268 207.651 122.804 204.201 122.804ZM211.676 113.489C212.749 113.489 213.861 113.336 215.011 113.029C216.161 112.646 217.119 112.186 217.886 111.649V100.494C217.119 99.9576 216.123 99.4976 214.896 99.1142C213.746 98.7309 212.596 98.5392 211.446 98.5392C209.453 98.5392 207.728 99.1909 206.271 100.494C204.814 101.721 204.086 103.676 204.086 106.359C204.086 108.429 204.776 110.154 206.156 111.534C207.536 112.838 209.376 113.489 211.676 113.489Z" fill="white"/>
<path d="M123.635 122C121.872 120.084 120.99 117.63 120.99 114.64C123.597 114.64 125.437 114.219 126.51 113.375C127.584 112.532 128.12 111.037 128.12 108.89V54.8405C128.12 52.6938 127.584 51.1988 126.51 50.3555C125.437 49.4355 123.597 48.9755 120.99 48.9755C120.99 47.6721 121.22 46.3688 121.68 45.0655C122.14 43.7621 122.792 42.6505 123.635 41.7305H153.19C154.034 42.6505 154.647 43.7621 155.03 45.0655C155.49 46.3688 155.72 47.6721 155.72 48.9755C152.654 48.9755 150.43 49.4355 149.05 50.3555C147.67 51.1988 146.98 52.6938 146.98 54.8405V112.225H154.11C158.404 112.225 161.739 110.347 164.115 106.59C166.569 102.757 167.795 97.6205 167.795 91.1805H175.845C176.842 91.8705 177.647 93.1738 178.26 95.0905C178.874 96.9305 179.334 98.9621 179.64 101.185C179.947 103.409 180.1 105.44 180.1 107.28C180.1 111.88 179.295 115.484 177.685 118.09C176.075 120.697 173.277 122 169.29 122H123.635Z" fill="white"/>
<rect y="28" width="76" height="120" fill="white"/>
<g filter="url(#filter0_d_59_19)">
<rect x="18" y="10" width="76" height="120" fill="#D9D9D9"/>
</g>
<rect x="18" y="10" width="76" height="60" fill="#846EFF"/>
<rect x="18" y="70" width="76" height="60" fill="#4832D7"/>
<circle cx="35.2591" cy="69.3333" r="7.33333" fill="#4832D7"/>
<circle cx="76.0003" cy="69.3333" r="7.33333" fill="#4832D7"/>
<path d="M55.333 100.666C61.9604 100.666 67.333 95.2934 67.333 88.666H43.333C43.333 95.2934 48.7056 100.666 55.333 100.666Z" fill="white"/>
<defs>
<filter id="filter0_d_59_19" x="8" y="0" width="96" height="140" filterUnits="userSpaceOnUse" color-interpolation-filters="sRGB">
<feFlood flood-opacity="0" result="BackgroundImageFix"/>
<feColorMatrix in="SourceAlpha" type="matrix" values="0 0 0 0 0 0 0 0 0 0 0 0 0 0 0 0 0 0 127 0" result="hardAlpha"/>
<feMorphology radius="2" operator="dilate" in="SourceAlpha" result="effect1_dropShadow_59_19"/>
<feOffset/>
<feGaussianBlur stdDeviation="4"/>
<feComposite in2="hardAlpha" operator="out"/>
<feColorMatrix type="matrix" values="0 0 0 0 0.136583 0 0 0 0 0.155599 0 0 0 0 0.299572 0 0 0 0.25 0"/>
<feBlend mode="normal" in2="BackgroundImageFix" result="effect1_dropShadow_59_19"/>
<feBlend mode="normal" in="SourceGraphic" in2="effect1_dropShadow_59_19" result="shape"/>
</filter>
</defs>
</svg>
